# xmcd CD database file
#
# Track frame offsets:
#	150
#	15177
#	32577
#	48635
#	64523
#	81501
#	98811
#	114439
#	134330
#	157642
#	177634
#	195193
#	209168
#	224373
#	239511
#	253461
#	269541
#	283173
#
# Disc length: 4076 seconds
#
# Revision: 0
# Processed by: cddbd v1.5.2PL0 Copyright (c) Steve Scherf et al.
# Submitted via: CDex 1.79
#
DISCID=0b0fea12
DTITLE=Various Artist - Dutch Country music 2015
DYEAR=2015
DGENRE=Country
TTITLE0=Zingga - Foolish heart
TTITLE1=Laura van den Elzen - The climb
TTITLE2=Shirley Ann - On a night like this
TTITLE3=Eddy Gee - Since you sat at my side
TTITLE4=Change of Key  - Living with a lack of love
TTITLE5=Southern Stars Theatre Company - Please please baby (live)
TTITLE6=Mark Blomsteel - Talk me down
TTITLE7=Leo Koster Band - Where the pavement ends
TTITLE8=Mariska Petrovic and the Fat Bastards - Lone wolf
TTITLE9=Raebekah Band - Take me home
TTITLE10=Sandra Mooy - Don't move
TTITLE11=Cohda ft. Danny Hendriks and John Permenter - My virtual radio show
TTITLE12=In 't Hof (& BJ Baartmans) - Is zoals het is
TTITLE13=Pinchitos Caliente - Lovely baby
TTITLE14=Colonel Hammond's Four - The Galway girl
TTITLE15=Vanderlinde - Katie Lee
TTITLE16=Woodwind - Tequila sunrise
TTITLE17=Matthijs Ros - It's useless
EXTD=YEAR: 2015
EXTT0=
EXTT1=
EXTT2=
EXTT3=
EXTT4=
EXTT5=
EXTT6=
EXTT7=
EXTT8=
EXTT9=
EXTT10=
EXTT11=
EXTT12=
EXTT13=
EXTT14=
EXTT15=
EXTT16=
EXTT17=
PLAYORDER=
